@startuml

package Coloring #DDDDDD {
    class ColoringSection {
        - languages: {[id: string]: {module: string, color: colors.ColorFunction, parser?: Parser}}
        {field}- decorationCache: new Map<string, vscode.TextEditorDecorationType>()

        -{static} decoration(scope: string): vscode.TextEditorDecorationType | undefined {
        -{static} function createDecorationFromTextmate(themeStyle: scopes.TextMateRuleSettings): vscode.TextEditorDecorationType
        -{static} loadStyles(): void
        -{static} visibleLines(editor: vscode.TextEditor): void
        -{static}  range(x: colors.Range): vscode.Range: void
        +{static} activateSyntaxColoring(context: vscode.ExtensionContext):void 
    }



    ' Color description
    allowmixing

    

    class ColorFunction << (F,#FF7700) Function>>{
        color(Parser.Tree, {number, number}[], boolean) : Map<string, {{number, number}, {number, number}}[]>
    }


    class colorDecisionGraph extends ColorFunction {	
    }

    class colorPolicySpace extends ColorFunction {	
    }

    class colorValueInference extends ColorFunction {	
    }
}

package Parsers {
        component DecisionGraphParser
        component PolicySpaceParser
        component ValueInferenceParser
        class Tree

        DecisionGraphParser --> Tree : "creates"
        PolicySpaceParser --> Tree : "creates"
        ValueInferenceParser --> Tree : "creates"
    }

ColorFunction --> Tree : recieves as paramater
ColoringSection --> ColorFunction : uses

Extension --> ColoringSection: uses

@enduml